<?xml version="1.0" encoding="utf-8"?>
<!-- Svg Vector Icons : http://www.onlinewebfonts.com/icon -->
<!DOCTYPE svg PUBLIC "-//W3C//DTD SVG 1.1//EN" "http://www.w3.org/Graphics/SVG/1.1/DTD/svg11.dtd">
<svg version="1.1" xmlns="http://www.w3.org/2000/svg" xmlns:xlink="http://www.w3.org/1999/xlink" x="0px" y="0px" viewBox="0 0 1000 1000" enable-background="new 0 0 1000 1000" xml:space="preserve">
<metadata> Svg Vector Icons : http://www.onlinewebfonts.com/icon </metadata>
<g><path d="M587.3,513.8l119.9-120c6,24.6,18.3,48.1,37.6,67.4c56.1,56.1,147,56.1,203.1,0c56.2-56.1,56.2-147.1,0-203.2c-56.1-56.1-147-56.1-203.1,0L538.1,464.7l-59.9,59.9l-5.7-5.7l59.9-59.9l206.6-206.6c56-56.1,56-147-0.1-203.1C683-6.8,592-6.8,536,49.3c-56.1,56.1-56.1,147,0,203.1c19.2,19.3,42.8,31.4,67.4,37.4l-120.1,120c0,0-1.5,1.6-59.9,59.9l-37.7-37.6L516.9,301c4.4-4.5,4.3-11.8-0.3-16.4c-4.6-4.6-12-4.7-16.3-0.2L369.2,415.5l-13.8-13.8l131.2-131.1c4.5-4.4,4.3-11.7-0.3-16.4c-4.7-4.6-12-4.7-16.4-0.3L338.7,385L325,371.3l131.1-131.1c4.5-4.5,4.2-11.8-0.3-16.4c-4.6-4.6-11.9-4.7-16.4-0.2L308.3,354.6l-13.8-13.7l131.1-131.2c4.4-4.4,4.3-11.7-0.3-16.4c-4.5-4.6-11.8-4.7-16.3-0.3L277.8,324.2l-13.7-13.8l131-131.1c4.5-4.4,4.4-11.7-0.3-16.4c-4.6-4.6-11.9-4.7-16.3-0.2L247.4,293.8L233.6,280l131.1-131.1c4.5-4.4,4.3-11.7-0.3-16.4c-4.6-4.6-11.9-4.7-16.3-0.3L217,263.3l-13.7-13.8l131.1-131.1c4.4-4.4,4.4-11.8-0.3-16.3c-4.6-4.6-12-4.8-16.4-0.3L186.5,232.9l-13.8-13.8L303.9,88c4.4-4.4,4.3-11.7-0.3-16.3c-4.6-4.6-12-4.7-16.3-0.3L156.1,202.5l-13.8-13.8L273.4,57.6c4.5-4.4,4.3-11.7-0.2-16.3c-4.6-4.6-11.9-4.8-16.4-0.3L125.7,172l-13.7-13.8L243,27.2c4.4-4.5,4.3-11.8-0.3-16.4c-4.6-4.6-11.9-4.7-16.3-0.3L87.3,149.6l-17.2,17.3l-54.8,54.7c-4.4,4.4-5.3,10.6-2,13.9L336,558.2C139.2,765.9,10,992.8,10,992.8s181.9-83.9,429.3-331.2l329.3,329.2c3.2,3.3,9.5,2.4,13.9-2.1l71.9-72c4.4-4.4,5.4-10.7,2.1-13.9L527.4,573.7C567.5,533.7,587.3,513.8,587.3,513.8z M791.2,304.5c30.5-30.4,79.8-30.4,110.3,0c30.4,30.4,30.5,79.8,0,110.2c-30.4,30.4-79.8,30.4-110.3,0C760.8,384.3,760.8,335,791.2,304.5z M758.8,436.3c3-3,7.8-3,10.9,0c20.4,20.4,47.7,31.7,76.7,31.7c28.9,0,56.1-11.3,76.6-31.7c20.5-20.5,31.8-47.7,31.8-76.6c0-28.9-11.3-56.2-31.8-76.6c-3-3-3-7.9,0-10.9c3-3,7.9-3,10.9,0c23.4,23.4,36.3,54.5,36.3,87.6c0,33-12.9,64.1-36.3,87.5c-23.4,23.4-54.5,36.2-87.5,36.2c-33,0-64.2-12.9-87.5-36.2C755.9,444.2,755.9,439.3,758.8,436.3z M582.4,95.7c30.4-30.5,79.7-30.5,110.2,0c30.4,30.4,30.4,79.7,0,110.2c-30.5,30.4-79.8,30.4-110.2,0C551.9,175.5,551.9,126.1,582.4,95.7z M550,238.4c-3-3-3-7.9,0-10.9c3-3,7.8-3,10.9,0c42.2,42.3,111,42.2,153.2,0c42.3-42.2,42.3-111,0-153.2c-3-3-3-7.9,0-10.9c3-3,7.9-3,10.8,0c48.3,48.3,48.3,126.8,0.1,175.1c-24.2,24.1-55.8,36.2-87.5,36.2C605.9,274.5,574.2,262.5,550,238.4z M347,547L33.9,233.9c-3-3.1-3-8,0-11c3-3,7.9-3,10.9,0l312.9,313C354.2,539.6,350.6,543.2,347,547z M390.6,638.4c-7.3,7.2-18.9,7.2-26.2,0c-7.2-7.2-7.2-18.8,0-26.1c7.2-7.2,18.9-7.2,26.2,0C397.8,619.5,397.8,631.2,390.6,638.4z M768,946.1c3,3,3,7.9,0,10.9c-1.5,1.5-3.5,2.3-5.4,2.3c-2,0-4-0.7-5.5-2.3L450.3,650.2c3.7-3.6,7.4-7.2,11-10.8L768,946.1z"/></g>
</svg>